{
	"patcher" : 	{
		"fileversion" : 1,
		"appversion" : 		{
			"major" : 9,
			"minor" : 0,
			"revision" : 8,
			"architecture" : "x64",
			"modernui" : 1
		}
,
		"classnamespace" : "box",
		"rect" : [ 34.0, 77.0, 1673.0, 908.0 ],
		"gridsize" : [ 15.0, 15.0 ],
		"toolbars_unpinned_last_save" : 4,
		"boxes" : [ 			{
				"box" : 				{
					"id" : "obj-5",
					"maxclass" : "newobj",
					"numinlets" : 1,
					"numoutlets" : 0,
					"patching_rect" : [ 695.0, 849.0, 59.0, 22.0 ],
					"text" : "s Tension"
				}

			}
, 			{
				"box" : 				{
					"id" : "obj-209",
					"linecount" : 3,
					"maxclass" : "comment",
					"numinlets" : 1,
					"numoutlets" : 0,
					"patching_rect" : [ 68.650341987609863, 195.076925337314606, 71.0, 50.0 ],
					"text" : "敌2：1\n敌1：0.5\n敌0：0"
				}

			}
, 			{
				"box" : 				{
					"id" : "obj-207",
					"linecount" : 2,
					"maxclass" : "comment",
					"numinlets" : 1,
					"numoutlets" : 0,
					"patching_rect" : [ 777.966065526008606, 431.606842041015625, 131.355926096439362, 34.0 ],
					"text" : "latest two normalized health value of player"
				}

			}
, 			{
				"box" : 				{
					"id" : "obj-202",
					"linecount" : 2,
					"maxclass" : "comment",
					"numinlets" : 1,
					"numoutlets" : 0,
					"patching_rect" : [ 76.694911688566208, 633.89827561378479, 154.762712061405182, 34.0 ],
					"text" : "Interpolation of A B C D affects perc_density"
				}

			}
, 			{
				"box" : 				{
					"id" : "obj-199",
					"linecount" : 2,
					"maxclass" : "comment",
					"numinlets" : 1,
					"numoutlets" : 0,
					"patching_rect" : [ 69.491522192955017, 137.288129210472107, 92.391710579395294, 34.0 ],
					"text" : "High Complex\nLow Tension"
				}

			}
, 			{
				"box" : 				{
					"id" : "obj-197",
					"linecount" : 2,
					"maxclass" : "comment",
					"numinlets" : 1,
					"numoutlets" : 0,
					"patching_rect" : [ 291.525410175323486, 132.0, 89.830504298210144, 34.0 ],
					"text" : "High Tension\nHigh Complex"
				}

			}
, 			{
				"box" : 				{
					"id" : "obj-196",
					"linecount" : 2,
					"maxclass" : "comment",
					"numinlets" : 1,
					"numoutlets" : 0,
					"patching_rect" : [ 63.565596461296082, 250.410259008407593, 92.391710579395294, 34.0 ],
					"text" : "Low Complex\nLow Tension"
				}

			}
, 			{
				"box" : 				{
					"id" : "obj-194",
					"maxclass" : "comment",
					"numinlets" : 1,
					"numoutlets" : 0,
					"patching_rect" : [ 163.711864978075027, 132.0, 24.576270043849945, 20.0 ],
					"text" : "D"
				}

			}
, 			{
				"box" : 				{
					"id" : "obj-192",
					"maxclass" : "comment",
					"numinlets" : 1,
					"numoutlets" : 0,
					"patching_rect" : [ 266.152536600828171, 132.0, 23.694926798343658, 20.0 ],
					"text" : "C"
				}

			}
, 			{
				"box" : 				{
					"id" : "obj-190",
					"maxclass" : "comment",
					"numinlets" : 1,
					"numoutlets" : 0,
					"patching_rect" : [ 245.762700438499451, 257.410259008407593, 20.338982105255127, 20.0 ],
					"text" : "B"
				}

			}
, 			{
				"box" : 				{
					"id" : "obj-188",
					"maxclass" : "comment",
					"numinlets" : 1,
					"numoutlets" : 0,
					"patching_rect" : [ 153.183051359653462, 252.282053828239441, 22.033897280693054, 20.0 ],
					"text" : "A"
				}

			}
, 			{
				"box" : 				{
					"id" : "obj-185",
					"maxclass" : "button",
					"numinlets" : 1,
					"numoutlets" : 1,
					"outlettype" : [ "bang" ],
					"parameter_enable" : 0,
					"patching_rect" : [ 394.915235877037048, 83.898301184177399, 24.0, 24.0 ]
				}

			}
, 			{
				"box" : 				{
					"id" : "obj-183",
					"maxclass" : "newobj",
					"numinlets" : 2,
					"numoutlets" : 2,
					"outlettype" : [ "bang", "" ],
					"patching_rect" : [ 394.920000000000016, 53.390000000000001, 34.0, 22.0 ],
					"text" : "sel 1"
				}

			}
, 			{
				"box" : 				{
					"id" : "obj-180",
					"maxclass" : "toggle",
					"numinlets" : 1,
					"numoutlets" : 1,
					"outlettype" : [ "int" ],
					"parameter_enable" : 0,
					"patching_rect" : [ 393.0, 22.0, 24.0, 24.0 ]
				}

			}
, 			{
				"box" : 				{
					"id" : "obj-178",
					"maxclass" : "button",
					"numinlets" : 1,
					"numoutlets" : 1,
					"outlettype" : [ "bang" ],
					"parameter_enable" : 0,
					"patching_rect" : [ 574.322763800621033, 669.491494297981262, 24.0, 24.0 ]
				}

			}
, 			{
				"box" : 				{
					"id" : "obj-176",
					"maxclass" : "newobj",
					"numinlets" : 1,
					"numoutlets" : 2,
					"outlettype" : [ "int", "bang" ],
					"patching_rect" : [ 650.427357017993927, 699.152509868144989, 29.5, 22.0 ],
					"text" : "t i b"
				}

			}
, 			{
				"box" : 				{
					"id" : "obj-175",
					"maxclass" : "message",
					"numinlets" : 2,
					"numoutlets" : 1,
					"outlettype" : [ "" ],
					"patching_rect" : [ 574.322763800621033, 705.932170569896698, 29.5, 22.0 ],
					"text" : "127"
				}

			}
, 			{
				"box" : 				{
					"id" : "obj-173",
					"maxclass" : "number",
					"numinlets" : 1,
					"numoutlets" : 2,
					"outlettype" : [ "", "bang" ],
					"parameter_enable" : 0,
					"patching_rect" : [ 570.085475862026215, 737.288101315498352, 50.0, 22.0 ]
				}

			}
, 			{
				"box" : 				{
					"id" : "obj-171",
					"maxclass" : "number",
					"numinlets" : 1,
					"numoutlets" : 2,
					"outlettype" : [ "", "bang" ],
					"parameter_enable" : 0,
					"patching_rect" : [ 611.703360438346863, 813.559284210205078, 50.0, 22.0 ]
				}

			}
, 			{
				"box" : 				{
					"id" : "obj-165",
					"maxclass" : "newobj",
					"numinlets" : 2,
					"numoutlets" : 1,
					"outlettype" : [ "int" ],
					"patching_rect" : [ 632.203360438346863, 768.644032061100006, 29.5, 22.0 ],
					"text" : "-"
				}

			}
, 			{
				"box" : 				{
					"id" : "obj-163",
					"maxclass" : "number",
					"numinlets" : 1,
					"numoutlets" : 2,
					"outlettype" : [ "", "bang" ],
					"parameter_enable" : 0,
					"patching_rect" : [ 650.427357017993927, 732.20335578918457, 50.0, 22.0 ]
				}

			}
, 			{
				"box" : 				{
					"id" : "obj-160",
					"maxclass" : "newobj",
					"numinlets" : 6,
					"numoutlets" : 1,
					"outlettype" : [ "" ],
					"patching_rect" : [ 650.427357017993927, 667.796579122543335, 97.0, 22.0 ],
					"text" : "scale 0. 1. 0 127"
				}

			}
, 			{
				"box" : 				{
					"id" : "obj-158",
					"maxclass" : "newobj",
					"numinlets" : 2,
					"numoutlets" : 1,
					"outlettype" : [ "" ],
					"patching_rect" : [ 659.829066514968872, 481.578942775726318, 41.0, 22.0 ],
					"text" : "pak f f"
				}

			}
, 			{
				"box" : 				{
					"id" : "obj-157",
					"maxclass" : "message",
					"numinlets" : 2,
					"numoutlets" : 1,
					"outlettype" : [ "" ],
					"patching_rect" : [ 650.427357017993927, 525.657889723777771, 65.0, 22.0 ],
					"text" : "$1, $2 500"
				}

			}
, 			{
				"box" : 				{
					"format" : 6,
					"id" : "obj-120",
					"maxclass" : "flonum",
					"numinlets" : 1,
					"numoutlets" : 2,
					"outlettype" : [ "", "bang" ],
					"parameter_enable" : 0,
					"patching_rect" : [ 650.427357017993927, 633.89827561378479, 50.0, 22.0 ]
				}

			}
, 			{
				"box" : 				{
					"id" : "obj-118",
					"maxclass" : "newobj",
					"numinlets" : 3,
					"numoutlets" : 2,
					"outlettype" : [ "", "bang" ],
					"patching_rect" : [ 650.427357017993927, 590.789468050003052, 40.0, 22.0 ],
					"text" : "line"
				}

			}
, 			{
				"box" : 				{
					"format" : 6,
					"id" : "obj-115",
					"maxclass" : "flonum",
					"numinlets" : 1,
					"numoutlets" : 2,
					"outlettype" : [ "", "bang" ],
					"parameter_enable" : 0,
					"patching_rect" : [ 716.692313849925995, 437.606842041015625, 50.0, 22.0 ]
				}

			}
, 			{
				"box" : 				{
					"id" : "obj-113",
					"maxclass" : "newobj",
					"numinlets" : 2,
					"numoutlets" : 1,
					"outlettype" : [ "" ],
					"patching_rect" : [ 650.427357017993927, 317.094020307064056, 40.0, 22.0 ],
					"text" : "pak i i"
				}

			}
, 			{
				"box" : 				{
					"id" : "obj-110",
					"maxclass" : "newobj",
					"numinlets" : 2,
					"numoutlets" : 1,
					"outlettype" : [ "int" ],
					"patching_rect" : [ 509.508535742759705, 251.282053828239441, 29.5, 22.0 ],
					"text" : "- 2"
				}

			}
, 			{
				"box" : 				{
					"id" : "obj-111",
					"maxclass" : "newobj",
					"numinlets" : 2,
					"numoutlets" : 2,
					"outlettype" : [ "", "" ],
					"patching_rect" : [ 509.508535742759705, 217.948720157146454, 37.0, 22.0 ],
					"text" : "zl.len"
				}

			}
, 			{
				"box" : 				{
					"id" : "obj-112",
					"maxclass" : "number",
					"numinlets" : 1,
					"numoutlets" : 2,
					"outlettype" : [ "", "bang" ],
					"parameter_enable" : 0,
					"patching_rect" : [ 509.508535742759705, 290.598293542861938, 50.0, 22.0 ]
				}

			}
, 			{
				"box" : 				{
					"id" : "obj-56",
					"maxclass" : "newobj",
					"numinlets" : 1,
					"numoutlets" : 2,
					"outlettype" : [ "float", "float" ],
					"patching_rect" : [ 659.829066514968872, 400.399230067729945, 61.0, 22.0 ],
					"text" : "unpack f f"
				}

			}
, 			{
				"box" : 				{
					"format" : 6,
					"id" : "obj-55",
					"maxclass" : "flonum",
					"numinlets" : 1,
					"numoutlets" : 2,
					"outlettype" : [ "", "bang" ],
					"parameter_enable" : 0,
					"patching_rect" : [ 650.427357017993927, 437.606842041015625, 50.0, 22.0 ]
				}

			}
, 			{
				"box" : 				{
					"id" : "obj-51",
					"maxclass" : "newobj",
					"numinlets" : 2,
					"numoutlets" : 1,
					"outlettype" : [ "int" ],
					"patching_rect" : [ 562.49998927116394, 256.410259008407593, 29.5, 22.0 ],
					"text" : "- 1"
				}

			}
, 			{
				"box" : 				{
					"id" : "obj-50",
					"maxclass" : "newobj",
					"numinlets" : 2,
					"numoutlets" : 2,
					"outlettype" : [ "", "" ],
					"patching_rect" : [ 562.49998927116394, 223.076925337314606, 37.0, 22.0 ],
					"text" : "zl.len"
				}

			}
, 			{
				"box" : 				{
					"id" : "obj-45",
					"maxclass" : "number",
					"numinlets" : 1,
					"numoutlets" : 2,
					"outlettype" : [ "", "bang" ],
					"parameter_enable" : 0,
					"patching_rect" : [ 562.49998927116394, 295.72649872303009, 50.0, 22.0 ]
				}

			}
, 			{
				"box" : 				{
					"id" : "obj-40",
					"maxclass" : "button",
					"numinlets" : 1,
					"numoutlets" : 1,
					"outlettype" : [ "bang" ],
					"parameter_enable" : 0,
					"patching_rect" : [ 570.085475862026215, 386.324790239334106, 24.0, 24.0 ]
				}

			}
, 			{
				"box" : 				{
					"id" : "obj-25",
					"maxclass" : "newobj",
					"numinlets" : 2,
					"numoutlets" : 2,
					"outlettype" : [ "", "" ],
					"patching_rect" : [ 659.829066514968872, 359.829063475131989, 56.0, 22.0 ],
					"text" : "zl.lookup"
				}

			}
, 			{
				"box" : 				{
					"id" : "obj-8",
					"maxclass" : "newobj",
					"numinlets" : 2,
					"numoutlets" : 2,
					"outlettype" : [ "", "" ],
					"patching_rect" : [ 702.564109683036804, 244.843672935962672, 109.0, 22.0 ],
					"text" : "route /game/health"
				}

			}
, 			{
				"box" : 				{
					"fontname" : "Arial",
					"fontsize" : 13.0,
					"id" : "obj-3",
					"maxclass" : "message",
					"numinlets" : 2,
					"numoutlets" : 1,
					"outlettype" : [ "" ],
					"patching_rect" : [ 690.0, 137.5, 63.0, 23.0 ],
					"text" : "port 9000"
				}

			}
, 			{
				"box" : 				{
					"fontname" : "Arial",
					"fontsize" : 13.0,
					"id" : "obj-21",
					"maxclass" : "message",
					"numinlets" : 2,
					"numoutlets" : 1,
					"outlettype" : [ "" ],
					"patching_rect" : [ 669.0, 102.5, 93.0, 23.0 ],
					"text" : "host 127.0.0.1"
				}

			}
, 			{
				"box" : 				{
					"id" : "obj-2",
					"maxclass" : "newobj",
					"numinlets" : 1,
					"numoutlets" : 1,
					"outlettype" : [ "" ],
					"patching_rect" : [ 669.230776011943817, 175.612903003692622, 67.0, 22.0 ],
					"text" : "udpreceive"
				}

			}
, 			{
				"box" : 				{
					"id" : "obj-96",
					"maxclass" : "message",
					"numinlets" : 2,
					"numoutlets" : 1,
					"outlettype" : [ "" ],
					"patching_rect" : [ 90.685180425643921, 785.714238882064819, 240.336120128631592, 22.0 ],
					"text" : "0.13532 0.344906 0.590942 0.900765"
				}

			}
, 			{
				"box" : 				{
					"format" : 6,
					"id" : "obj-94",
					"maxclass" : "flonum",
					"numinlets" : 1,
					"numoutlets" : 2,
					"outlettype" : [ "", "bang" ],
					"parameter_enable" : 0,
					"patching_rect" : [ 279.760799407958984, 863.865494728088379, 50.0, 22.0 ]
				}

			}
, 			{
				"box" : 				{
					"format" : 6,
					"id" : "obj-92",
					"maxclass" : "flonum",
					"numinlets" : 1,
					"numoutlets" : 2,
					"outlettype" : [ "", "bang" ],
					"parameter_enable" : 0,
					"patching_rect" : [ 190.685174465179443, 860.504150390625, 50.0, 22.0 ]
				}

			}
, 			{
				"box" : 				{
					"format" : 6,
					"id" : "obj-90",
					"maxclass" : "flonum",
					"numinlets" : 1,
					"numoutlets" : 2,
					"outlettype" : [ "", "bang" ],
					"parameter_enable" : 0,
					"patching_rect" : [ 112.533918619155884, 863.865494728088379, 50.0, 22.0 ]
				}

			}
, 			{
				"box" : 				{
					"format" : 6,
					"id" : "obj-88",
					"maxclass" : "flonum",
					"numinlets" : 1,
					"numoutlets" : 2,
					"outlettype" : [ "", "bang" ],
					"parameter_enable" : 0,
					"patching_rect" : [ 22.033897280693054, 863.865494728088379, 50.0, 22.0 ]
				}

			}
, 			{
				"box" : 				{
					"id" : "obj-85",
					"maxclass" : "newobj",
					"numinlets" : 1,
					"numoutlets" : 4,
					"outlettype" : [ "float", "float", "float", "float" ],
					"patching_rect" : [ 145.307025909423828, 816.806674003601074, 74.0, 22.0 ],
					"text" : "unpack f f f f"
				}

			}
, 			{
				"box" : 				{
					"hint" : "",
					"id" : "obj-84",
					"maxclass" : "multislider",
					"numinlets" : 1,
					"numoutlets" : 2,
					"outlettype" : [ "", "" ],
					"parameter_enable" : 0,
					"patching_rect" : [ 74.576267719268799, 670.432170569896698, 159.0, 93.0 ],
					"setminmax" : [ 0.0, 1.0 ],
					"size" : 4
				}

			}
, 			{
				"box" : 				{
					"id" : "obj-81",
					"maxclass" : "comment",
					"numinlets" : 1,
					"numoutlets" : 0,
					"patching_rect" : [ 768.644032061100006, 955.462127923965454, 74.264704465866089, 20.0 ],
					"text" : "mel_density"
				}

			}
, 			{
				"box" : 				{
					"id" : "obj-79",
					"maxclass" : "comment",
					"numinlets" : 1,
					"numoutlets" : 0,
					"patching_rect" : [ 264.634749889373779, 861.344486474990845, 19.852940797805786, 20.0 ],
					"text" : "f8"
				}

			}
, 			{
				"box" : 				{
					"id" : "obj-77",
					"maxclass" : "comment",
					"numinlets" : 1,
					"numoutlets" : 0,
					"patching_rect" : [ 172.197780609130859, 861.344486474990845, 19.852940797805786, 20.0 ],
					"text" : "f7"
				}

			}
, 			{
				"box" : 				{
					"id" : "obj-76",
					"maxclass" : "comment",
					"numinlets" : 1,
					"numoutlets" : 0,
					"patching_rect" : [ 90.685180425643921, 861.344486474990845, 19.852940797805786, 20.0 ],
					"text" : "f6"
				}

			}
, 			{
				"box" : 				{
					"id" : "obj-74",
					"maxclass" : "comment",
					"numinlets" : 1,
					"numoutlets" : 0,
					"patching_rect" : [ -2.596327543258667, 864.865494728088379, 19.852940797805786, 20.0 ],
					"text" : "f5"
				}

			}
, 			{
				"box" : 				{
					"id" : "obj-73",
					"maxclass" : "comment",
					"numinlets" : 1,
					"numoutlets" : 0,
					"patching_rect" : [ 562.49998927116394, 575.074055254459381, 19.852940797805786, 20.0 ],
					"text" : "f4"
				}

			}
, 			{
				"box" : 				{
					"id" : "obj-72",
					"maxclass" : "comment",
					"numinlets" : 1,
					"numoutlets" : 0,
					"patching_rect" : [ 444.11763858795166, 575.074055254459381, 19.852940797805786, 20.0 ],
					"text" : "f3"
				}

			}
, 			{
				"box" : 				{
					"id" : "obj-71",
					"maxclass" : "comment",
					"numinlets" : 1,
					"numoutlets" : 0,
					"patching_rect" : [ 326.814805805683136, 575.074055254459381, 19.852940797805786, 20.0 ],
					"text" : "f2"
				}

			}
, 			{
				"box" : 				{
					"id" : "obj-70",
					"maxclass" : "comment",
					"numinlets" : 1,
					"numoutlets" : 0,
					"patching_rect" : [ 186.764702320098877, 569.148129522800446, 19.852940797805786, 20.0 ],
					"text" : "f1"
				}

			}
, 			{
				"box" : 				{
					"format" : 6,
					"id" : "obj-68",
					"maxclass" : "flonum",
					"numinlets" : 1,
					"numoutlets" : 2,
					"outlettype" : [ "", "bang" ],
					"parameter_enable" : 0,
					"patching_rect" : [ 351.260483264923096, 954.621791839599609, 50.0, 22.0 ]
				}

			}
, 			{
				"box" : 				{
					"id" : "obj-66",
					"maxclass" : "newobj",
					"numinlets" : 8,
					"numoutlets" : 1,
					"outlettype" : [ "" ],
					"patching_rect" : [ 342.016786336898804, 918.487340211868286, 228.0, 22.0 ],
					"text" : "expr $f1*$f5 + $f2*$f6 + $f3*$f7 + $f4*$f8"
				}

			}
, 			{
				"box" : 				{
					"id" : "obj-62",
					"maxclass" : "newobj",
					"numinlets" : 8,
					"numoutlets" : 1,
					"outlettype" : [ "" ],
					"patching_rect" : [ 343.425913274288177, 744.537770748138428, 92.5, 22.0 ],
					"text" : "pak f f f f f f f f"
				}

			}
, 			{
				"box" : 				{
					"id" : "obj-53",
					"maxclass" : "comment",
					"numinlets" : 1,
					"numoutlets" : 0,
					"patching_rect" : [ 279.760799407958984, 841.176420450210571, 85.0, 20.0 ],
					"text" : "Dperc_density"
				}

			}
, 			{
				"box" : 				{
					"id" : "obj-52",
					"maxclass" : "comment",
					"numinlets" : 1,
					"numoutlets" : 0,
					"patching_rect" : [ 188.164166212081909, 841.176420450210571, 85.0, 20.0 ],
					"text" : "Cperc_density"
				}

			}
, 			{
				"box" : 				{
					"id" : "obj-49",
					"maxclass" : "comment",
					"numinlets" : 1,
					"numoutlets" : 0,
					"patching_rect" : [ 103.290221691131592, 842.016756534576416, 85.0, 20.0 ],
					"text" : "Bperc_density"
				}

			}
, 			{
				"box" : 				{
					"id" : "obj-47",
					"maxclass" : "comment",
					"numinlets" : 1,
					"numoutlets" : 0,
					"patching_rect" : [ -3.432461023330688, 842.016756534576416, 85.0, 20.0 ],
					"text" : "Aperc_density"
				}

			}
, 			{
				"box" : 				{
					"id" : "obj-43",
					"maxclass" : "comment",
					"numinlets" : 1,
					"numoutlets" : 0,
					"patching_rect" : [ 403.361320495605469, 955.462127923965454, 84.814813673496246, 20.0 ],
					"text" : "perc_density"
				}

			}
, 			{
				"box" : 				{
					"format" : 6,
					"id" : "obj-37",
					"maxclass" : "flonum",
					"numinlets" : 1,
					"numoutlets" : 2,
					"outlettype" : [ "", "bang" ],
					"parameter_enable" : 0,
					"patching_rect" : [ 501.481465041637421, 574.074055254459381, 50.0, 22.0 ]
				}

			}
, 			{
				"box" : 				{
					"id" : "obj-38",
					"maxclass" : "newobj",
					"numinlets" : 2,
					"numoutlets" : 1,
					"outlettype" : [ "" ],
					"patching_rect" : [ 491.111095011234283, 534.814797282218933, 80.0, 22.0 ],
					"text" : "expr $f1 * $f2"
				}

			}
, 			{
				"box" : 				{
					"format" : 6,
					"id" : "obj-35",
					"maxclass" : "flonum",
					"numinlets" : 1,
					"numoutlets" : 2,
					"outlettype" : [ "", "bang" ],
					"parameter_enable" : 0,
					"patching_rect" : [ 385.925913274288177, 574.074055254459381, 50.0, 22.0 ]
				}

			}
, 			{
				"box" : 				{
					"id" : "obj-36",
					"maxclass" : "newobj",
					"numinlets" : 2,
					"numoutlets" : 1,
					"outlettype" : [ "" ],
					"patching_rect" : [ 375.55554324388504, 534.814797282218933, 99.0, 22.0 ],
					"text" : "expr (1-$f1) * $f2"
				}

			}
, 			{
				"box" : 				{
					"format" : 6,
					"id" : "obj-33",
					"maxclass" : "flonum",
					"numinlets" : 1,
					"numoutlets" : 2,
					"outlettype" : [ "", "bang" ],
					"parameter_enable" : 0,
					"patching_rect" : [ 274.814805805683136, 574.074055254459381, 50.0, 22.0 ]
				}

			}
, 			{
				"box" : 				{
					"id" : "obj-34",
					"maxclass" : "newobj",
					"numinlets" : 2,
					"numoutlets" : 1,
					"outlettype" : [ "" ],
					"patching_rect" : [ 264.444435775279999, 534.814797282218933, 99.0, 22.0 ],
					"text" : "expr $f1 * (1-$f2)"
				}

			}
, 			{
				"box" : 				{
					"format" : 6,
					"id" : "obj-32",
					"maxclass" : "flonum",
					"numinlets" : 1,
					"numoutlets" : 2,
					"outlettype" : [ "", "bang" ],
					"parameter_enable" : 0,
					"patching_rect" : [ 134.699999999999989, 568.148129522800446, 50.0, 22.0 ]
				}

			}
, 			{
				"box" : 				{
					"id" : "obj-30",
					"maxclass" : "newobj",
					"numinlets" : 2,
					"numoutlets" : 1,
					"outlettype" : [ "" ],
					"patching_rect" : [ 127.5, 534.814797282218933, 117.0, 22.0 ],
					"text" : "expr (1-$f1) * (1-$f2)"
				}

			}
, 			{
				"box" : 				{
					"id" : "obj-29",
					"maxclass" : "newobj",
					"numinlets" : 2,
					"numoutlets" : 1,
					"outlettype" : [ "" ],
					"patching_rect" : [ 143.699999999999989, 469.629999999999995, 41.0, 22.0 ],
					"text" : "pak f f"
				}

			}
, 			{
				"box" : 				{
					"format" : 6,
					"id" : "obj-28",
					"maxclass" : "flonum",
					"numinlets" : 1,
					"numoutlets" : 2,
					"outlettype" : [ "", "bang" ],
					"parameter_enable" : 0,
					"patching_rect" : [ 272.592583656311035, 418.518504798412323, 50.0, 22.0 ]
				}

			}
, 			{
				"box" : 				{
					"format" : 6,
					"id" : "obj-26",
					"maxclass" : "flonum",
					"numinlets" : 1,
					"numoutlets" : 2,
					"outlettype" : [ "", "bang" ],
					"parameter_enable" : 0,
					"patching_rect" : [ 145.185180425643921, 419.25924551486969, 50.0, 22.0 ]
				}

			}
, 			{
				"box" : 				{
					"id" : "obj-24",
					"maxclass" : "newobj",
					"numinlets" : 6,
					"numoutlets" : 1,
					"outlettype" : [ "" ],
					"patching_rect" : [ 145.185180425643921, 373.329999999999927, 97.0, 22.0 ],
					"text" : "scale 0 127 0. 1."
				}

			}
, 			{
				"box" : 				{
					"id" : "obj-20",
					"maxclass" : "newobj",
					"numinlets" : 6,
					"numoutlets" : 1,
					"outlettype" : [ "" ],
					"patching_rect" : [ 257.04000000000002, 373.329999999999984, 97.0, 22.0 ],
					"text" : "scale 0 127 0. 1."
				}

			}
, 			{
				"box" : 				{
					"id" : "obj-19",
					"maxclass" : "number",
					"numinlets" : 1,
					"numoutlets" : 2,
					"outlettype" : [ "", "bang" ],
					"parameter_enable" : 0,
					"patching_rect" : [ 253.0, 322.0, 50.0, 22.0 ]
				}

			}
, 			{
				"box" : 				{
					"id" : "obj-17",
					"maxclass" : "number",
					"numinlets" : 1,
					"numoutlets" : 2,
					"outlettype" : [ "", "bang" ],
					"parameter_enable" : 0,
					"patching_rect" : [ 151.0, 323.0, 50.0, 22.0 ]
				}

			}
, 			{
				"box" : 				{
					"id" : "obj-15",
					"maxclass" : "comment",
					"numinlets" : 1,
					"numoutlets" : 0,
					"patching_rect" : [ 68.650341987609863, 175.612903003692622, 82.222219526767731, 23.0 ],
					"text" : "视野内敌人数"
				}

			}
, 			{
				"box" : 				{
					"id" : "obj-12",
					"linecount" : 4,
					"maxclass" : "comment",
					"numinlets" : 1,
					"numoutlets" : 0,
					"patching_rect" : [ 608.578751444816589, 843.865494728088379, 56.249217987060547, 62.0 ],
					"text" : "Health value controls tension"
				}

			}
, 			{
				"box" : 				{
					"id" : "obj-6",
					"maxclass" : "comment",
					"numinlets" : 1,
					"numoutlets" : 0,
					"patching_rect" : [ 74.576267719268799, 74.0338996052742, 70.37036806344986, 20.0 ],
					"text" : "Complexity"
				}

			}
, 			{
				"box" : 				{
					"id" : "obj-4",
					"linecount" : 2,
					"maxclass" : "comment",
					"numinlets" : 1,
					"numoutlets" : 0,
					"patching_rect" : [ 277.118631184101105, 245.843672935962672, 81.355928421020508, 34.0 ],
					"text" : "High Tension\nLow Complex"
				}

			}
, 			{
				"box" : 				{
					"id" : "obj-1",
					"maxclass" : "pictslider",
					"numinlets" : 2,
					"numoutlets" : 2,
					"outlettype" : [ "int", "int" ],
					"parameter_enable" : 0,
					"patching_rect" : [ 172.0, 154.0, 100.0, 100.0 ]
				}

			}
 ],
		"lines" : [ 			{
				"patchline" : 				{
					"destination" : [ "obj-17", 0 ],
					"source" : [ "obj-1", 0 ]
				}

			}
, 			{
				"patchline" : 				{
					"destination" : [ "obj-19", 0 ],
					"source" : [ "obj-1", 1 ]
				}

			}
, 			{
				"patchline" : 				{
					"destination" : [ "obj-112", 0 ],
					"source" : [ "obj-110", 0 ]
				}

			}
, 			{
				"patchline" : 				{
					"destination" : [ "obj-110", 0 ],
					"source" : [ "obj-111", 0 ]
				}

			}
, 			{
				"patchline" : 				{
					"destination" : [ "obj-113", 0 ],
					"source" : [ "obj-112", 0 ]
				}

			}
, 			{
				"patchline" : 				{
					"destination" : [ "obj-25", 0 ],
					"source" : [ "obj-113", 0 ]
				}

			}
, 			{
				"patchline" : 				{
					"destination" : [ "obj-158", 1 ],
					"source" : [ "obj-115", 0 ]
				}

			}
, 			{
				"patchline" : 				{
					"destination" : [ "obj-120", 0 ],
					"source" : [ "obj-118", 0 ]
				}

			}
, 			{
				"patchline" : 				{
					"destination" : [ "obj-160", 0 ],
					"source" : [ "obj-120", 0 ]
				}

			}
, 			{
				"patchline" : 				{
					"destination" : [ "obj-118", 0 ],
					"source" : [ "obj-157", 0 ]
				}

			}
, 			{
				"patchline" : 				{
					"destination" : [ "obj-157", 0 ],
					"source" : [ "obj-158", 0 ]
				}

			}
, 			{
				"patchline" : 				{
					"destination" : [ "obj-176", 0 ],
					"source" : [ "obj-160", 0 ]
				}

			}
, 			{
				"patchline" : 				{
					"destination" : [ "obj-165", 1 ],
					"source" : [ "obj-163", 0 ]
				}

			}
, 			{
				"patchline" : 				{
					"destination" : [ "obj-171", 0 ],
					"source" : [ "obj-165", 0 ]
				}

			}
, 			{
				"patchline" : 				{
					"destination" : [ "obj-24", 0 ],
					"source" : [ "obj-17", 0 ]
				}

			}
, 			{
				"patchline" : 				{
					"destination" : [ "obj-1", 0 ],
					"order" : 1,
					"source" : [ "obj-171", 0 ]
				}

			}
, 			{
				"patchline" : 				{
					"destination" : [ "obj-5", 0 ],
					"order" : 0,
					"source" : [ "obj-171", 0 ]
				}

			}
, 			{
				"patchline" : 				{
					"destination" : [ "obj-165", 0 ],
					"source" : [ "obj-173", 0 ]
				}

			}
, 			{
				"patchline" : 				{
					"destination" : [ "obj-173", 0 ],
					"source" : [ "obj-175", 0 ]
				}

			}
, 			{
				"patchline" : 				{
					"destination" : [ "obj-163", 0 ],
					"source" : [ "obj-176", 0 ]
				}

			}
, 			{
				"patchline" : 				{
					"destination" : [ "obj-178", 0 ],
					"source" : [ "obj-176", 1 ]
				}

			}
, 			{
				"patchline" : 				{
					"destination" : [ "obj-175", 0 ],
					"source" : [ "obj-178", 0 ]
				}

			}
, 			{
				"patchline" : 				{
					"destination" : [ "obj-183", 0 ],
					"source" : [ "obj-180", 0 ]
				}

			}
, 			{
				"patchline" : 				{
					"destination" : [ "obj-185", 0 ],
					"source" : [ "obj-183", 0 ]
				}

			}
, 			{
				"patchline" : 				{
					"destination" : [ "obj-21", 0 ],
					"order" : 1,
					"source" : [ "obj-185", 0 ]
				}

			}
, 			{
				"patchline" : 				{
					"destination" : [ "obj-3", 0 ],
					"order" : 0,
					"source" : [ "obj-185", 0 ]
				}

			}
, 			{
				"patchline" : 				{
					"destination" : [ "obj-96", 0 ],
					"order" : 2,
					"source" : [ "obj-185", 0 ]
				}

			}
, 			{
				"patchline" : 				{
					"destination" : [ "obj-20", 0 ],
					"source" : [ "obj-19", 0 ]
				}

			}
, 			{
				"patchline" : 				{
					"destination" : [ "obj-40", 0 ],
					"order" : 1,
					"source" : [ "obj-2", 0 ]
				}

			}
, 			{
				"patchline" : 				{
					"destination" : [ "obj-8", 0 ],
					"order" : 0,
					"source" : [ "obj-2", 0 ]
				}

			}
, 			{
				"patchline" : 				{
					"destination" : [ "obj-28", 0 ],
					"source" : [ "obj-20", 0 ]
				}

			}
, 			{
				"patchline" : 				{
					"destination" : [ "obj-2", 0 ],
					"source" : [ "obj-21", 0 ]
				}

			}
, 			{
				"patchline" : 				{
					"destination" : [ "obj-26", 0 ],
					"source" : [ "obj-24", 0 ]
				}

			}
, 			{
				"patchline" : 				{
					"destination" : [ "obj-56", 0 ],
					"source" : [ "obj-25", 0 ]
				}

			}
, 			{
				"patchline" : 				{
					"destination" : [ "obj-29", 0 ],
					"source" : [ "obj-26", 0 ]
				}

			}
, 			{
				"patchline" : 				{
					"destination" : [ "obj-29", 1 ],
					"source" : [ "obj-28", 0 ]
				}

			}
, 			{
				"patchline" : 				{
					"destination" : [ "obj-30", 0 ],
					"order" : 3,
					"source" : [ "obj-29", 0 ]
				}

			}
, 			{
				"patchline" : 				{
					"destination" : [ "obj-34", 0 ],
					"order" : 2,
					"source" : [ "obj-29", 0 ]
				}

			}
, 			{
				"patchline" : 				{
					"destination" : [ "obj-36", 0 ],
					"order" : 1,
					"source" : [ "obj-29", 0 ]
				}

			}
, 			{
				"patchline" : 				{
					"destination" : [ "obj-38", 0 ],
					"order" : 0,
					"source" : [ "obj-29", 0 ]
				}

			}
, 			{
				"patchline" : 				{
					"destination" : [ "obj-2", 0 ],
					"source" : [ "obj-3", 0 ]
				}

			}
, 			{
				"patchline" : 				{
					"destination" : [ "obj-32", 0 ],
					"source" : [ "obj-30", 0 ]
				}

			}
, 			{
				"patchline" : 				{
					"destination" : [ "obj-62", 0 ],
					"source" : [ "obj-32", 0 ]
				}

			}
, 			{
				"patchline" : 				{
					"destination" : [ "obj-62", 1 ],
					"source" : [ "obj-33", 0 ]
				}

			}
, 			{
				"patchline" : 				{
					"destination" : [ "obj-33", 0 ],
					"source" : [ "obj-34", 0 ]
				}

			}
, 			{
				"patchline" : 				{
					"destination" : [ "obj-62", 2 ],
					"source" : [ "obj-35", 0 ]
				}

			}
, 			{
				"patchline" : 				{
					"destination" : [ "obj-35", 0 ],
					"source" : [ "obj-36", 0 ]
				}

			}
, 			{
				"patchline" : 				{
					"destination" : [ "obj-62", 3 ],
					"source" : [ "obj-37", 0 ]
				}

			}
, 			{
				"patchline" : 				{
					"destination" : [ "obj-37", 0 ],
					"source" : [ "obj-38", 0 ]
				}

			}
, 			{
				"patchline" : 				{
					"destination" : [ "obj-25", 0 ],
					"source" : [ "obj-40", 0 ]
				}

			}
, 			{
				"patchline" : 				{
					"destination" : [ "obj-113", 1 ],
					"source" : [ "obj-45", 0 ]
				}

			}
, 			{
				"patchline" : 				{
					"destination" : [ "obj-51", 0 ],
					"source" : [ "obj-50", 0 ]
				}

			}
, 			{
				"patchline" : 				{
					"destination" : [ "obj-45", 0 ],
					"source" : [ "obj-51", 0 ]
				}

			}
, 			{
				"patchline" : 				{
					"destination" : [ "obj-158", 0 ],
					"source" : [ "obj-55", 0 ]
				}

			}
, 			{
				"patchline" : 				{
					"destination" : [ "obj-115", 0 ],
					"source" : [ "obj-56", 1 ]
				}

			}
, 			{
				"patchline" : 				{
					"destination" : [ "obj-55", 0 ],
					"source" : [ "obj-56", 0 ]
				}

			}
, 			{
				"patchline" : 				{
					"destination" : [ "obj-66", 0 ],
					"source" : [ "obj-62", 0 ]
				}

			}
, 			{
				"patchline" : 				{
					"destination" : [ "obj-68", 0 ],
					"source" : [ "obj-66", 0 ]
				}

			}
, 			{
				"patchline" : 				{
					"destination" : [ "obj-111", 0 ],
					"order" : 2,
					"source" : [ "obj-8", 0 ]
				}

			}
, 			{
				"patchline" : 				{
					"destination" : [ "obj-25", 1 ],
					"order" : 0,
					"source" : [ "obj-8", 0 ]
				}

			}
, 			{
				"patchline" : 				{
					"destination" : [ "obj-50", 0 ],
					"order" : 1,
					"source" : [ "obj-8", 0 ]
				}

			}
, 			{
				"patchline" : 				{
					"destination" : [ "obj-96", 1 ],
					"source" : [ "obj-84", 0 ]
				}

			}
, 			{
				"patchline" : 				{
					"destination" : [ "obj-88", 0 ],
					"source" : [ "obj-85", 0 ]
				}

			}
, 			{
				"patchline" : 				{
					"destination" : [ "obj-90", 0 ],
					"source" : [ "obj-85", 1 ]
				}

			}
, 			{
				"patchline" : 				{
					"destination" : [ "obj-92", 0 ],
					"source" : [ "obj-85", 2 ]
				}

			}
, 			{
				"patchline" : 				{
					"destination" : [ "obj-94", 0 ],
					"source" : [ "obj-85", 3 ]
				}

			}
, 			{
				"patchline" : 				{
					"destination" : [ "obj-62", 4 ],
					"source" : [ "obj-88", 0 ]
				}

			}
, 			{
				"patchline" : 				{
					"destination" : [ "obj-62", 5 ],
					"source" : [ "obj-90", 0 ]
				}

			}
, 			{
				"patchline" : 				{
					"destination" : [ "obj-62", 6 ],
					"source" : [ "obj-92", 0 ]
				}

			}
, 			{
				"patchline" : 				{
					"destination" : [ "obj-62", 7 ],
					"source" : [ "obj-94", 0 ]
				}

			}
, 			{
				"patchline" : 				{
					"destination" : [ "obj-85", 0 ],
					"source" : [ "obj-96", 0 ]
				}

			}
 ],
		"dependency_cache" : [  ],
		"autosave" : 0,
		"oscsendudpport" : 9000
	}

}
